<svg width="24" height="24" viewBox="0 0 24 24" fill="none" xmlns="http://www.w3.org/2000/svg">
<g clip-path="url(#clip0_1_2)">
<path d="M12 23.4C18.2961 23.4 23.4 18.296 23.4 12C23.4 5.70395 18.2961 0.6 12 0.6C5.70396 0.6 0.600006 5.70395 0.600006 12C0.600006 18.296 5.70396 23.4 12 23.4Z" fill="black"/>
<path d="M12 21.6C17.3019 21.6 21.6 17.3019 21.6 12C21.6 6.69807 17.3019 2.4 12 2.4C6.69806 2.4 2.39999 6.69807 2.39999 12C2.39999 17.3019 6.69806 21.6 12 21.6Z" fill="white"/>
<path d="M12 19.8C16.3078 19.8 19.8 16.3078 19.8 12C19.8 7.69218 16.3078 4.2 12 4.2C7.69218 4.2 4.2 7.69218 4.2 12C4.2 16.3078 7.69218 19.8 12 19.8Z" fill="black"/>
<path d="M12 18C15.3137 18 18 15.3137 18 12C18 8.68629 15.3137 6 12 6C8.68629 6 6 8.68629 6 12C6 15.3137 8.68629 18 12 18Z" fill="white"/>
<path d="M12 16.2C14.3196 16.2 16.2 14.3196 16.2 12C16.2 9.6804 14.3196 7.8 12 7.8C9.68041 7.8 7.8 9.6804 7.8 12C7.8 14.3196 9.68041 16.2 12 16.2Z" fill="black"/>
<path d="M12 14.4C13.3255 14.4 14.4 13.3255 14.4 12C14.4 10.6745 13.3255 9.6 12 9.6C10.6745 9.6 9.60001 10.6745 9.60001 12C9.60001 13.3255 10.6745 14.4 12 14.4Z" fill="white"/>
</g>
<defs>
<clipPath id="clip0_1_2">
<rect width="24" height="24" fill="white"/>
</clipPath>
</defs>
</svg>
