<svg width="23" height="23" viewBox="0 0 23 23" fill="none" xmlns="http://www.w3.org/2000/svg">
<rect width="23" height="23" fill="white"/>
<g clip-path="url(#clip0_1_42)">
<path d="M22.0003 2.659C22.0003 2.09069 22.0003 1.8067 21.8931 1.588C21.7906 1.37866 21.6214 1.20951 21.4121 1.10697C21.1936 1 20.9096 1 20.3413 1H2.65926C2.09112 1 1.80679 1 1.58826 1.10713C1.37908 1.20967 1.20994 1.37882 1.10723 1.58816C1.00026 1.8067 1.00026 2.09085 1.00026 2.65916V20.3412C1.00026 20.9093 1.00026 21.1936 1.10723 21.4122C1.20994 21.6213 1.37908 21.7905 1.58826 21.8932C1.80679 22.0002 2.09112 22.0002 2.65926 22.0002H20.3413C20.9096 22.0002 21.1936 22.0002 21.4123 21.8932C21.6216 21.7905 21.7908 21.6213 21.8933 21.4122C22.0004 21.1936 22.0004 20.9093 22.0004 20.3412V2.659H22.0003Z" fill="#0000FF"/>
</g>
<defs>
<clipPath id="clip0_1_42">
<rect width="21" height="21" fill="white" transform="matrix(-1 0 0 1 22 1)"/>
</clipPath>
</defs>
</svg>
