  <svg xmlns="http://www.w3.org/2000/svg" version="1.0" viewBox="0 0 349 443"><path d="M214.7 80.6c-1.5.8-5.3 3.3-8.5 5.5l-5.7 4-7.2-.7c-8.4-.7-14.2 1.4-22 8.1-3.4 2.9-4.9 3.5-8.6 3.5-3.2 0-6.3 1-11.3 3.7-5.4 2.9-8.4 3.8-13.9 4.2-5.7.5-7 .9-7.3 2.4-.5 2.4 7.5 10.1 12.1 11.8 3.5 1.2 3.5 1.3 1.9 3.7-1.6 2.5 1 6.1 4.5 6.2 3.4 0-1.8 14.7-8.1 22.3-5.4 6.7-6.8 10.9-7.6 23.7-.8 12.3-1.1 13.3-12.1 39.5-2.3 5.5-5.4 15.1-7 21.3-3.6 14.1-3.2 13.5-8.9 13-16.3-1.6-25.4-15.5-24.9-38 .3-13 .2-13.1-5.1-7.1-9.8 11-13.4 27.6-8.7 40 1.4 3.7 1.4 4.3.2 4.3-5.1 0 4.7 13.8 12 17.2 1.4.6 2.1 1.6 1.8 2.4-1.6 4.2 18.1 5.9 25.3 2.1l3.1-1.6.5 3.7c.3 2 1.7 6.7 3.2 10.3 4.3 10.9 3.4 14.6-5.6 23.1l-6.1 5.7-.8 9.8c-.9 10.9-1.5 13.1-5.5 21.8-7.8 16.9.8 28.3 12.5 16.6 4.7-4.7 6.7-10.4 8.1-23 1.3-11.5 3.5-16 10.5-21.3 4.5-3.5 5.1-3.7 6-2.1.5 1 5.4 6.1 10.7 11.3 6 5.9 10.3 11.1 11.3 13.5 5.8 14 21.5 17.3 21.5 4.4-.1-7-2.9-11.7-12.3-20.3-12.3-11.1-12.3-11.1 1-24.2 14.5-14.4 15.2-24.6 2.9-43-6.8-10.2-6.3-11.3 8.3-20.8 8.8-5.8 15.5-11.9 22.1-20.3 2.5-3.1 2.7-3.2 17.4-4.9l14.8-1.8 3.5 3.9c11.4 12.9 14.7 15 22 14.2 9.3-1 11.4-8.3 4.2-14.6-2.3-2-7.4-6.6-11.3-10.2-7.8-7.1-10.4-8.9-15.1-9.9l-3-.6 3.2-1.7c4.5-2.4 6.5-2.2 13.5 1.4 14.6 7.4 32 3 26.7-6.7-1.9-3.6-5.9-5.7-20.4-10.8-16.2-5.8-17.4-5.7-31.5.5-16.3 7.2-15 7.2-15 .1 0-5.3-.6-7.3-4.4-14.4-9.1-17.2-5.6-28.7 9.1-30.3 11.9-1.3 15.8-3.9 15.1-10l-.4-3.3 9.1-1.7c22.8-4.1 48.3-15.8 51.5-23.5 5.7-13.6-23.5-13.1-54.7 1l-6.3 2.9V93c0-4.7-1.5-8.8-4.2-11.8-2.5-2.6-2.5-2.6-6.1-.6m.7 10c6.2 2.1 5.8 3.3-3.4 10.9-15.9 13.1-16.4 20.3-1.5 21.3 9.2.6 9.7 1.8 1 2.4-13 1.1-19.7 8.1-20.3 21.2-.4 7.4-.4 7.4 7.6 22.1 2.7 4.9 2.9 16.1.4 16.7-1.8.5-2.1-.1-2.7-5.1-1.5-11.9-8.8-19.7-20.2-21.6-9.9-1.6-10.7 1.4-1.3 5 12.3 4.7 15 8 16 19.8 1.1 12.2.8 12.2 27.2.6 18.7-8.2 16.9-8.1 34-2 15 5.3 15.8 5.7 15.8 7.3 0 .6-1.1.3-2.5-.6-3.2-2.1-3.8-2-3.2.5.9 3.2-6.3 2.1-15.6-2.6-9.4-4.6-10.6-4.4-22.9 3.7-37.4 24.6-40.8 25.7-46 15.3-3-6-6.5-10.3-11.1-13.6-7.3-5.3-7.9-2.7-1.3 5.5 2.5 3 5.9 8.1 7.5 11.3 4.7 9 8.1 12.1 12.1 10.8 5.8-1.8-1.4 5.3-12 12-10.8 6.8-14.7 10.9-19 19.9l-3.8 8-.7-5.7c-.5-3.5-.3-7.5.4-10.3 1.3-5.2.7-6.9-1.6-3.9-5 6.5-5.4 12.6-1.7 25.1 6.3 21.8 3 30.6-16.6 43.7-15.7 10.5-18.4 14.5-20.6 31.4-1.6 12.5-3.8 18-8.2 20.9-1.3.9-2.3 1.2-2 .7.2-.4 1-2 1.7-3.6 1.8-3.4.8-4.6-1.9-2.2-2.8 2.5-2.5 1.3 1.6-8.9 3.1-7.7 4.9-17.1 5.4-27.8 0-.4 2.3-2.8 5.1-5.5 9.1-8.6 11.3-15.5 7.9-24.9-4.8-13.3-5.3-16.2-4.1-25.6 1.7-13 6.4-30.4 11.7-43.1 10.8-25.9 11.5-28.2 12-39 .7-12.9 1.4-15.1 7.3-23.1 2.7-3.6 5.8-9.2 7.1-12.6 1.3-3.5 3.9-7.7 6.1-10 4.6-4.7 4.8-6 1.2-6.1-2.6-.1-2.6-.1.7-1.1 1.9-.5 3.9-1.4 4.4-1.9.6-.5 1.9.5 3.3 2.6 1.6 2.4 3.2 3.5 4.8 3.5 3.7 0 3.9-1.7.7-5.4-1.6-1.9-3.2-5-3.6-7l-.7-3.7-3.2 2.3c-4.4 3.1-13.2 3.1-20.5-.1l-5.3-2.4 5.3-2.2c2.9-1.2 6.9-3.1 8.8-4.3 2.5-1.6 5.1-2.2 9-2.2 5.1 0 5.8-.3 9.3-4 6.1-6.2 10.9-8 20.4-7.8 7.7.3 12.9-1.6 16.9-6.1 0-.1 2.2.6 4.8 1.5m53.1 2.4c-21.2 10.1-59 18.9-46.3 10.7 10.4-6.7 35.7-14.6 46.8-14.6l7.5.1zm11-1.9c0 5.2-35.5 19.1-52 20.3-2.7.2-3.9.2-2.5-.1 19.1-3.4 50.6-15.9 51.8-20.5.5-2.1 2.7-1.9 2.7.3m-64.8 20.6c-.4.3-1 .3-1.4 0-.3-.4 0-.7.7-.7s1 .3.7.7m16.2 88.4c4.1.8 6.4 2.3 12.8 8.2 4.3 4 9.3 8.3 11.1 9.5 1.7 1.3 3.2 2.8 3.2 3.5 0 .6-1.3-.1-2.8-1.6-3.6-3.5-4.5-3.4-3.7.3.4 1.6.4 3 0 3-2.8 0-8.3-4.2-12.5-9.7-6.6-8.3-16.9-10.7-28.7-6.7-1 .4.5-.8 3.2-2.6 4.2-2.8 7.9-4.3 11.7-4.9.4-.1 2.9.4 5.7 1M78.4 239.3c4.9 11.1 14.6 18.4 25.8 19.5 4.6.4 5.8.8 5.4 1.9-.4.8-.6 2.3-.6 3.3 0 2.2-8.5 6-13.2 5.9-1.8 0-2.7-.3-2-.6 3-1.2 1.1-3.3-3-3.3-2.4 0-6.6-1.1-9.5-2.5-5.8-2.6-6.6-3.5-2.8-2.7 3.3.6 3.2-.2-1-5.1-7.1-8.2-9.4-20.7-5.8-31.7l1.7-5.3 1.3 7.6c.7 4.1 2.3 10 3.7 13m89.7 33.2c3.9 8.5 2 13.6-9.5 25.4-14.6 15.1-14.7 17.5-.8 31 9.9 9.6 13.8 15.9 11.4 18.3-.6.6-1.1-.1-1.5-1.9-.3-1.6-1.5-4-2.6-5.4l-2-2.4-.1 3.8c0 4.9-1.3 4.1-5-3.3-2.1-4.1-5.4-8-11.6-13.6-12-11-11.9-10.5-4-17.6 11.2-10.1 13.5-16.7 12.6-36.3-.2-4.9.2-8.2 1.4-10.9l1.6-3.9 4.2 6.4c2.2 3.5 4.9 8.2 5.9 10.4"/><path d="M188.4 96.8c-6.3 4.4-5.8 10.6.6 7.4 5.3-2.6 5.6-3.2 4-6.3-1.1-2-2.7-2.4-4.6-1.1"/></svg>
