<svg width="24" height="24" viewBox="0 0 24 24" fill="none" xmlns="http://www.w3.org/2000/svg">
<rect width="24" height="24" fill="white"/>
<g clip-path="url(#clip0_1_39)">
<path d="M20.9022 16.6149L17.7656 19.7821C17.6975 19.8509 17.615 19.9057 17.5233 19.9432C17.4316 19.9807 17.3327 20.0001 17.2328 20H2.36413C2.29318 20 2.22378 19.9805 2.16445 19.9439C2.10513 19.9072 2.05846 19.8551 2.03018 19.7938C2.0019 19.7325 1.99324 19.6648 2.00527 19.599C2.01731 19.5332 2.0495 19.4721 2.0979 19.4232L5.23679 16.256C5.3048 16.1874 5.38702 16.1326 5.47839 16.0952C5.56978 16.0577 5.66835 16.0383 5.76804 16.0381H20.6359C20.7068 16.0381 20.7762 16.0576 20.8356 16.0942C20.8948 16.1309 20.9415 16.183 20.9699 16.2443C20.9981 16.3056 21.0068 16.3733 20.9947 16.4391C20.9827 16.5049 20.9505 16.566 20.9022 16.6149ZM17.7656 10.2369C17.6975 10.1681 17.615 10.1133 17.5233 10.0758C17.4316 10.0383 17.3327 10.019 17.2328 10.0191H2.36413C2.29318 10.0191 2.22378 10.0386 2.16445 10.0752C2.10513 10.1118 2.05846 10.164 2.03018 10.2252C2.0019 10.2865 1.99324 10.3542 2.00527 10.4201C2.01731 10.4859 2.0495 10.547 2.0979 10.5958L5.23679 13.7631C5.3048 13.8317 5.38702 13.8864 5.47839 13.9239C5.56978 13.9614 5.66835 13.9808 5.76804 13.9809H20.6359C20.7068 13.9809 20.7762 13.9614 20.8356 13.9248C20.8948 13.8882 20.9415 13.836 20.9699 13.7748C20.9981 13.7135 21.0068 13.6458 20.9947 13.5799C20.9827 13.5141 20.9505 13.453 20.9022 13.4042L17.7656 10.2369ZM2.36413 7.96191H17.2328C17.3327 7.96195 17.4316 7.94264 17.5233 7.90515C17.615 7.86765 17.6975 7.8128 17.7656 7.744L20.9022 4.57676C20.9505 4.52792 20.9827 4.46683 20.9947 4.401C21.0068 4.33517 20.9981 4.26746 20.9699 4.2062C20.9415 4.14493 20.8948 4.09278 20.8356 4.05615C20.7762 4.01952 20.7068 4 20.6359 4H5.76804C5.66835 4.00016 5.56978 4.01958 5.47839 4.05706C5.38702 4.09455 5.3048 4.14929 5.23679 4.21791L2.09871 7.38515C2.05036 7.43393 2.01818 7.49496 2.00612 7.56071C1.99406 7.62647 2.00265 7.69413 2.03082 7.75536C2.059 7.8166 2.10555 7.86875 2.16476 7.90544C2.22396 7.94213 2.29325 7.96175 2.36413 7.96191Z" fill="#D9D9D9"/>
</g>
<defs>
<clipPath id="clip0_1_39">
<rect width="19" height="16" fill="white" transform="translate(2 4)"/>
</clipPath>
</defs>
</svg>
