<svg width="24" height="24" viewBox="0 0 24 24" fill="none" xmlns="http://www.w3.org/2000/svg">
<rect width="24" height="24" fill="white"/>
<g clip-path="url(#clip0_1_4)">
<path d="M22.9981 12.0275C22.9981 5.97458 18.0912 1.06769 12.0383 1.06769C5.98532 1.06769 1.07843 5.97458 1.07843 12.0275C1.07843 18.0805 5.98532 22.9874 12.0383 22.9874C18.0912 22.9874 22.9981 18.0805 22.9981 12.0275Z" fill="#FC6432"/>
<path fill-rule="evenodd" clip-rule="evenodd" d="M13.9032 10.2063C13.8632 10.1375 13.8689 10.0514 13.9147 9.98258L15.8283 7.14319C15.8799 7.06289 15.8856 6.96538 15.8398 6.88507C15.7939 6.79903 15.708 6.75314 15.6163 6.75314H14.8716C14.7913 6.75314 14.7111 6.79329 14.6595 6.86787L12.4251 10.1949C12.3677 10.2809 12.276 10.3268 12.1729 10.3268H11.8922C11.7891 10.3268 11.6974 10.2752 11.6401 10.1949L9.41708 6.86212C9.37123 6.78756 9.28524 6.7474 9.20502 6.7474H8.46021C8.36854 6.7474 8.27686 6.79903 8.23676 6.88507C8.19092 6.97111 8.20239 7.06863 8.24822 7.14319L10.1619 9.98836C10.2077 10.0514 10.2134 10.1375 10.1733 10.2063C10.1332 10.2809 10.0645 10.321 9.98426 10.321H7.05648C6.91324 10.321 6.80438 10.4358 6.80438 10.5735V11.1929C6.80438 11.3363 6.91898 11.4453 7.05648 11.4453H17.0201C17.1633 11.4453 17.2722 11.3306 17.2722 11.1929V10.5735C17.2722 10.4415 17.1748 10.3383 17.0487 10.321C17.0373 10.321 17.0258 10.321 17.0144 10.321H14.0923C14.0121 10.321 13.9376 10.2809 13.9032 10.2063ZM11.6458 13.8602L9.41129 17.1872C9.36545 17.2618 9.27954 17.3019 9.19932 17.3019H8.45448C8.36281 17.3019 8.27687 17.2503 8.23103 17.17C8.1852 17.0897 8.19092 16.9865 8.24249 16.9119L10.1504 14.0725C10.1962 14.0037 10.202 13.9233 10.1619 13.8488C10.1218 13.7799 10.053 13.7341 9.97278 13.7341H7.05648C6.91898 13.7341 6.80438 13.625 6.80438 13.4816V12.8622C6.80438 12.7245 6.91324 12.6097 7.05648 12.6097H16.9972C16.9972 12.6097 17.0144 12.6097 17.0201 12.6097C17.1576 12.6097 17.2722 12.7188 17.2722 12.8622V13.4816C17.2722 13.6193 17.1633 13.7341 17.0201 13.7341H14.098C14.0121 13.7341 13.9434 13.7742 13.9089 13.8488C13.8689 13.9233 13.8746 14.0037 13.9204 14.0667L15.8341 16.9119C15.8799 16.9865 15.8913 17.0839 15.8456 17.17C15.7997 17.2561 15.7137 17.3077 15.6221 17.3077H14.8773C14.7913 17.3077 14.7168 17.2676 14.671 17.1987L12.4365 13.8717C12.3792 13.7857 12.2875 13.7398 12.1844 13.7398H11.9036C11.8005 13.7398 11.7088 13.7914 11.6515 13.8717L11.6458 13.8602Z" fill="white"/>
</g>
<defs>
<clipPath id="clip0_1_4">
<rect width="22" height="22" fill="white" transform="translate(1 1)"/>
</clipPath>
</defs>
</svg>
